<?xml version="1.0" encoding="UTF-8" standalone="no"?>
<!-- Created with Inkscape (http://www.inkscape.org/) -->

<svg
   width="192"
   height="192"
   viewBox="0 0 50.799999 50.799999"
   version="1.1"
   id="svg5"
   xml:space="preserve"
   inkscape:version="1.2.2 (732a01da63, 2022-12-09)"
   sodipodi:docname="launcher_icon.svg"
   inkscape:export-filename="launcher_icon.png"
   inkscape:export-xdpi="96"
   inkscape:export-ydpi="96"
   xmlns:inkscape="http://www.inkscape.org/namespaces/inkscape"
   xmlns:sodipodi="http://sodipodi.sourceforge.net/DTD/sodipodi-0.dtd"
   xmlns="http://www.w3.org/2000/svg"
   xmlns:svg="http://www.w3.org/2000/svg"><sodipodi:namedview
     id="namedview7"
     pagecolor="#ffffff"
     bordercolor="#666666"
     borderopacity="1.0"
     inkscape:showpageshadow="2"
     inkscape:pageopacity="0.0"
     inkscape:pagecheckerboard="0"
     inkscape:deskcolor="#d1d1d1"
     inkscape:document-units="mm"
     showgrid="false"
     inkscape:zoom="1.2918636"
     inkscape:cx="22.061153"
     inkscape:cy="73.537175"
     inkscape:window-width="1920"
     inkscape:window-height="1017"
     inkscape:window-x="0"
     inkscape:window-y="0"
     inkscape:window-maximized="0"
     inkscape:current-layer="layer1" /><defs
     id="defs2" /><g
     inkscape:label="Capa 1"
     inkscape:groupmode="layer"
     id="layer1"><rect
       x="0.79374546"
       y="0.79374707"
       width="49.212509"
       height="49.212505"
       rx="5.5562506"
       fill="#363d52"
       stroke="#212532"
       stroke-width="1.58749"
       id="rect150" /><path
       d="m 14.800429,22.410408 v 5.33586 0.677737 0.616756 c 0.01276,1.02e-4 0.02424,5.09e-4 0.03621,0.0016 l 4.064835,0.391929 c 0.21292,0.02055 0.379795,0.191922 0.394616,0.405295 l 0.125395,1.794342 3.545799,0.253014 0.244251,-1.6561 c 0.03175,-0.214676 0.21584,-0.373805 0.433033,-0.373805 h 4.288539 c 0.217082,0 0.401253,0.159123 0.432921,0.373848 l 0.24425,1.656102 3.54591,-0.253015 0.125237,-1.794342 c 0.01436,-0.213374 0.181699,-0.384632 0.394632,-0.405295 l 4.063257,-0.39193 c 0.01117,-0.0012 0.02408,-0.0016 0.03621,-0.0016 v -0.529052 l 0.0016,-6.09e-4 V 22.41045 c 0.5725,-0.720576 1.114513,-1.515411 1.529773,-2.18414 -0.63463,-1.080377 -1.412201,-2.045828 -2.243326,-2.940305 -0.770837,0.387999 -1.519546,0.827546 -2.226711,1.295279 -0.353854,-0.351727 -0.752411,-0.639442 -1.143899,-0.940184 -0.384628,-0.308939 -0.818107,-0.53545 -1.229235,-0.799357 0.122366,-0.911546 0.182926,-1.808943 0.207302,-2.745533 -1.060811,-0.533877 -2.192027,-0.887848 -3.33626,-1.142098 -0.456835,0.767801 -0.874584,1.599278 -1.238441,2.412111 -0.431469,-0.0721 -0.864948,-0.09882 -1.298985,-0.103987 v -6.73e-4 c -0.0032,0 -0.0063,6.73e-4 -0.008,6.73e-4 -0.0032,0 -0.0063,-6.73e-4 -0.008,-6.73e-4 v 6.73e-4 c -0.434835,0.0052 -0.867979,0.03189 -1.299544,0.103987 -0.363634,-0.812833 -0.781175,-1.64431 -1.238679,-2.412111 -1.143676,0.25425 -2.274987,0.608221 -3.33567,1.142099 0.02424,0.93659 0.08488,1.833987 0.207526,2.745533 -0.411901,0.263907 -0.844822,0.490418 -1.229563,0.799356 -0.390854,0.300743 -0.79008,0.588458 -1.14406,0.940184 -0.70715,-0.467732 -1.455635,-0.907279 -2.226696,-1.295278 -0.831141,0.894477 -1.608264,1.859928 -2.243094,2.940262 0.498904,0.783151 1.034056,1.570289 1.529643,2.184139 z"
       fill="#478cbf"
       id="path250"
       style="display:inline;stroke-width:0.112301"
       inkscape:label="head" /><g
       id="g6008"
       inkscape:label="right_eye"
       transform="matrix(1.5953735,0,0,1.5953735,12.283503,11.178877)"><path
         d="m 6.3889272,8.7271181 c 0,0.8483592 -0.6873737,1.5355919 -1.5354517,1.5355919 -0.8476553,0 -1.5352403,-0.6872327 -1.5352403,-1.5355919 0,-0.8477963 0.687585,-1.5346775 1.5352403,-1.5346775 0.848078,0 1.5354517,0.6868812 1.5354517,1.5346775"
         fill="#ffffff"
         id="path254"
         style="display:inline;stroke-width:0.0703918" /><path
         d="m 6.0194683,8.8181935 c 0,0.5627102 -0.456067,1.0187769 -1.0191997,1.0187769 -0.5628511,0 -1.0191998,-0.4560667 -1.0191998,-1.0187769 0,-0.5627102 0.4563487,-1.0192001 1.0191998,-1.0192001 0.5631327,0 1.0191997,0.4564899 1.0191997,1.0192001"
         fill="#414042"
         id="path256"
         style="display:inline;stroke-width:0.0703918" /></g><g
       id="g6004"
       inkscape:label="left_eye"
       transform="matrix(1.5953735,0,0,1.5953735,12.283503,11.178877)"><path
         d="m 10.541662,8.7271181 c 0,0.8483592 0.687373,1.5355919 1.535592,1.5355919 0.847585,0 1.5351,-0.6872327 1.5351,-1.5355919 0,-0.8477963 -0.687515,-1.5346775 -1.5351,-1.5346775 -0.848219,0 -1.535592,0.6868812 -1.535592,1.5346775"
         fill="#ffffff"
         id="path260"
         style="display:inline;stroke-width:0.0703918" /><path
         d="m 10.911214,8.8181935 c 0,0.5627102 0.455926,1.0187769 1.018636,1.0187769 0.563273,0 1.0192,-0.4560667 1.0192,-1.0187769 0,-0.5627102 -0.455927,-1.0192001 -1.0192,-1.0192001 -0.56271,0 -1.018636,0.4564899 -1.018636,1.0192001"
         fill="#414042"
         id="path262"
         style="display:inline;stroke-width:0.0703918"
         inkscape:label="path262" /></g><path
       style="display:inline;fill:#00e26b;fill-opacity:1;stroke:#00e26b;stroke-width:0.410814px;stroke-linecap:butt;stroke-linejoin:miter;stroke-opacity:1"
       d="m 15.292027,36.68156 c 1.503815,0.572353 2.777242,-0.367316 3.708716,-1.310012 l 3.558241,-3.922735 6.578731,0.03344 3.155952,3.404503 c 0.415227,0.437681 1.632018,2.243478 3.741868,1.918024 1.795611,-0.404015 1.712121,-2.518037 1.667233,-3.483178 l -0.750132,-8.536767 c -0.06428,-0.952833 -0.658954,-2.027602 -1.60509,-2.97988 -0.570952,-0.512687 -1.458889,-1.546248 -3.614541,-1.569552 l -11.89619,0.01563 c -1.211797,0.09322 -1.98332,0.272734 -3.265043,1.321414 -1.025378,0.955467 -1.571252,1.653182 -1.839833,3.47631 l -0.702108,7.622798 c -0.190774,1.986396 -0.06206,3.246848 1.262196,4.009984 z"
       id="path1283"
       sodipodi:nodetypes="ccccccccccccccc"
       inkscape:label="controller" /><g
       id="g5781"
       inkscape:label="buttons"
       style="display:inline"
       transform="matrix(1.5953735,0,0,1.5953735,12.283503,11.537999)"><path
         style="fill:#ffffff;fill-opacity:1;stroke:none;stroke-width:0.0928545;stroke-linecap:round;stroke-linejoin:round;stroke-dasharray:none;stroke-opacity:1;paint-order:fill markers stroke;stop-color:#000000"
         id="path3503"
         sodipodi:type="arc"
         sodipodi:cx="10.818992"
         sodipodi:cy="8.8704472"
         sodipodi:rx="0.6074577"
         sodipodi:ry="0.6074577"
         sodipodi:start="1.1088271"
         sodipodi:end="1.102134"
         sodipodi:open="true"
         sodipodi:arc-type="arc"
         d="M 11.089743,9.414229 A 0.6074577,0.6074577 0 0 1 10.275664,9.1421077 0.6074577,0.6074577 0 0 1 10.546422,8.3275744 0.6074577,0.6074577 0 0 1 11.361408,8.5969698 0.6074577,0.6074577 0 0 1 11.093376,9.4124047" /><path
         style="fill:#ffffff;fill-opacity:1;stroke:none;stroke-width:0.0928545;stroke-linecap:round;stroke-linejoin:round;stroke-dasharray:none;stroke-opacity:1;paint-order:fill markers stroke;stop-color:#000000"
         id="path3503-8"
         sodipodi:type="arc"
         sodipodi:cx="12.071127"
         sodipodi:cy="7.6253495"
         sodipodi:rx="0.6074577"
         sodipodi:ry="0.6074577"
         sodipodi:start="1.1088271"
         sodipodi:end="1.102134"
         sodipodi:open="true"
         sodipodi:arc-type="arc"
         d="M 12.341878,8.1691314 A 0.6074577,0.6074577 0 0 1 11.527799,7.8970101 0.6074577,0.6074577 0 0 1 11.798558,7.0824768 0.6074577,0.6074577 0 0 1 12.613543,7.3518722 0.6074577,0.6074577 0 0 1 12.345511,8.1673071" /><path
         style="fill:#ffffff;fill-opacity:1;stroke:none;stroke-width:0.0928545;stroke-linecap:round;stroke-linejoin:round;stroke-dasharray:none;stroke-opacity:1;paint-order:fill markers stroke;stop-color:#000000"
         id="path3503-8-9"
         sodipodi:type="arc"
         sodipodi:cx="13.323258"
         sodipodi:cy="8.8704481"
         sodipodi:rx="0.6074577"
         sodipodi:ry="0.6074577"
         sodipodi:start="1.1088271"
         sodipodi:end="1.102134"
         sodipodi:open="true"
         sodipodi:arc-type="arc"
         d="M 13.594009,9.41423 A 0.6074577,0.6074577 0 0 1 12.77993,9.1421087 0.6074577,0.6074577 0 0 1 13.050689,8.3275754 0.6074577,0.6074577 0 0 1 13.865674,8.5969708 0.6074577,0.6074577 0 0 1 13.597643,9.4124057" /><path
         style="fill:#ffffff;fill-opacity:1;stroke:none;stroke-width:0.0928545;stroke-linecap:round;stroke-linejoin:round;stroke-dasharray:none;stroke-opacity:1;paint-order:fill markers stroke;stop-color:#000000"
         id="path3503-8-9-4"
         sodipodi:type="arc"
         sodipodi:cx="12.078159"
         sodipodi:cy="10.122581"
         sodipodi:rx="0.6074577"
         sodipodi:ry="0.6074577"
         sodipodi:start="1.1088271"
         sodipodi:end="1.102134"
         sodipodi:open="true"
         sodipodi:arc-type="arc"
         d="M 12.34891,10.666362 A 0.6074577,0.6074577 0 0 1 11.534831,10.394241 0.6074577,0.6074577 0 0 1 11.80559,9.5797078 0.6074577,0.6074577 0 0 1 12.620575,9.8491032 0.6074577,0.6074577 0 0 1 12.352544,10.664538" /></g><path
       d="m 36.775502,29.040764 c 0,0 -0.03653,-0.223928 -0.05775,-0.221906 l -4.063272,0.392046 c -0.323304,0.03122 -0.574416,0.289058 -0.597102,0.613047 l -0.111675,1.59995 -3.143524,0.224265 -0.213827,-1.450027 c -0.04754,-0.32253 -0.329269,-0.565659 -0.655268,-0.565659 h -4.288541 c -0.325902,0 -0.607549,0.243129 -0.655171,0.565659 l -0.213923,1.450027 -3.143541,-0.224265 -0.111676,-1.59995 c -0.02267,-0.3241 -0.273786,-0.581942 -0.597105,-0.613162 L 14.85784,28.818858 c -0.02106,-0.002 -0.03638,0.222132 -0.05743,0.222132 l -0.0064,0.879316 3.442912,0.555215 0.112793,1.614213 c 0.02282,0.326796 0.286481,0.591039 0.6135,0.614511 l 4.329317,0.308828 c 0.01644,0.0012 0.03254,0.0018 0.04882,0.0018 0.325328,0 0.606528,-0.243243 0.654151,-0.56577 l 0.220001,-1.49203 h 3.144976 l 0.220001,1.49203 c 0.04754,0.322415 0.329047,0.56566 0.654822,0.56566 0.01595,0 0.03191,-5.1e-4 0.04754,-0.0016 l 4.329876,-0.308828 c 0.326907,-0.0235 0.590703,-0.287714 0.613501,-0.61451 l 0.112633,-1.614214 3.441459,-0.557685 z"
       fill="#ffffff"
       id="path248"
       style="display:inline;stroke-width:0.112301"
       inkscape:label="mouth" /><path
       d="m 33.128845,30.270202 -0.125876,1.803888 c -0.01436,0.217413 -0.188095,0.390469 -0.405511,0.406078 l -4.329764,0.308941 c -0.01117,8.23e-4 -0.02106,0.0012 -0.03159,0.0012 -0.215168,0 -0.400805,-0.157893 -0.432585,-0.373962 l -0.248278,-1.683819 h -3.532875 l -0.248303,1.683839 c -0.03334,0.226623 -0.23594,0.389571 -0.464126,0.372838 l -4.329759,-0.309002 c -0.217417,-0.01564 -0.390355,-0.188665 -0.405528,-0.40608 L 18.448777,30.2702 14.793728,29.917798 c 0.0016,0.392828 0.0064,0.823165 0.0064,0.908852 0,3.86023 4.896871,5.715665 10.980893,5.737 h 0.008 0.008 c 6.084004,-0.02134 10.979201,-1.87677 10.979201,-5.737 0,-0.08726 0.0048,-0.515799 0.0063,-0.908852 z"
       fill="#478cbf"
       id="path252"
       style="display:inline;stroke-width:0.112301"
       inkscape:label="jaw" /><path
       d="m 25.788595,27.774603 c -0.435504,0 -0.788465,-0.320955 -0.788465,-0.716589 v -2.255113 c 0,-0.395301 0.352961,-0.716592 0.788465,-0.716592 0.435505,0 0.789263,0.321291 0.789263,0.716592 v 2.255113 c 0,0.395634 -0.353758,0.716589 -0.789263,0.716589"
       fill="#ffffff"
       id="path258"
       style="display:inline;stroke-width:0.112301"
       inkscape:label="nose" /><g
       id="g5785"
       inkscape:label="d-pad"
       style="display:inline"
       transform="matrix(1.5953735,0,0,1.5953735,12.283503,11.537999)"><path
         style="display:inline;fill:#ffffff;fill-opacity:1;stroke:none;stroke-width:0.266555;stroke-linecap:round;stroke-linejoin:bevel;stroke-opacity:1;-inkscape-stroke:none;paint-order:fill markers stroke;stop-color:#000000"
         id="path1604"
         sodipodi:type="arc"
         sodipodi:cx="4.9170833"
         sodipodi:cy="8.8845148"
         sodipodi:rx="2.0470264"
         sodipodi:ry="2.0470264"
         sodipodi:start="1.1088271"
         sodipodi:end="1.102134"
         sodipodi:open="true"
         sodipodi:arc-type="arc"
         d="M 5.829467,10.716965 A 2.0470264,2.0470264 0 0 1 3.0861625,9.7999635 2.0470264,2.0470264 0 0 1 3.9985722,7.0551284 2.0470264,2.0470264 0 0 1 6.7449302,7.962944 2.0470264,2.0470264 0 0 1 5.8417113,10.710817" /><path
         style="fill:#478cbf;fill-opacity:1;stroke:#478cbf;stroke-width:0.102432;stroke-linecap:butt;stroke-linejoin:round;stroke-dasharray:none;stroke-opacity:1"
         d="m 4.5718181,7.4438408 h 0.7193546 l 4.6e-6,1.0669303 1.0525189,4e-7 0.0072,0.7334233 -1.0598955,-0.01441 -0.00704,1.0672732 H 4.5646115 l 0.0072,-1.067274 -1.0811701,0.0072 -3.421e-4,-0.7262177 1.0743069,-0.0072 z"
         id="path2849"
         sodipodi:nodetypes="ccccccccccccc" /></g></g></svg>
